<svg width="24" height="25" viewBox="0 0 24 25" fill="none" xmlns="http://www.w3.org/2000/svg">
<path d="M17.505 16.0974C17.7073 17.1384 18.132 18.1235 18.75 18.9854H0.75C0.75 18.9854 2.25 16.6564 2.25 10.7354C2.25 6.59322 5.60786 3.23535 9.75 3.23535V0.985352" stroke="black" stroke-width="1.5" stroke-linecap="round" stroke-linejoin="round"/>
<path fill-rule="evenodd" clip-rule="evenodd" d="M17.25 12.9854C20.5637 12.9854 23.25 10.2991 23.25 6.98535C23.25 3.67164 20.5637 0.985352 17.25 0.985352C13.9363 0.985352 11.25 3.67164 11.25 6.98535C11.25 10.2991 13.9363 12.9854 17.25 12.9854Z" stroke="black" stroke-width="1.5" stroke-linecap="round" stroke-linejoin="round"/>
<path d="M17.25 4.73535V8.48535H19.5" stroke="black" stroke-width="1.5" stroke-linecap="round" stroke-linejoin="round"/>
<path d="M7.74805 21.9854C8.00893 22.8741 8.82434 23.4845 9.75055 23.4845C10.6768 23.4845 11.4922 22.8741 11.753 21.9854" stroke="black" stroke-width="1.5" stroke-linecap="round" stroke-linejoin="round"/>
</svg>
