<svg width="24" height="25" viewBox="0 0 24 25" fill="none" xmlns="http://www.w3.org/2000/svg">
<path d="M6.81375 4.50146C5.77556 5.07797 4.91984 5.93404 4.34375 6.97246" stroke="black" stroke-width="1.5" stroke-linecap="round" stroke-linejoin="round"/>
<path d="M5.975 1.73535C3.8086 2.35129 2.11546 4.04482 1.5 6.21135" stroke="black" stroke-width="1.5" stroke-linecap="round" stroke-linejoin="round"/>
<path d="M4.5 18.2354H19.5" stroke="black" stroke-width="1.5" stroke-linecap="round" stroke-linejoin="round"/>
<path d="M19.5 18.2352C19.5 18.2352 18 16.9292 18 12.2352C18 8.48524 15.438 5.16724 12 5.16724C8.562 5.16724 6 8.48524 6 12.2352C6 16.9542 4.5 18.2352 4.5 18.2352" stroke="black" stroke-width="1.5" stroke-linecap="round" stroke-linejoin="round"/>
<path d="M13.5 21.2354C13.5 22.0638 12.8284 22.7354 12 22.7354C11.1716 22.7354 10.5 22.0638 10.5 21.2354" stroke="black" stroke-width="1.5" stroke-linecap="round" stroke-linejoin="round"/>
<path d="M12 5.16735V3.23535" stroke="black" stroke-width="1.5" stroke-linecap="round" stroke-linejoin="round"/>
<path d="M17.1855 4.50146C17.7012 4.78939 18.175 5.14673 18.5935 5.56346C19.011 5.98177 19.3684 6.45596 19.6555 6.97246" stroke="black" stroke-width="1.5" stroke-linecap="round" stroke-linejoin="round"/>
<path d="M18.0254 1.73535C20.1918 2.35129 21.8849 4.04482 22.5004 6.21135" stroke="black" stroke-width="1.5" stroke-linecap="round" stroke-linejoin="round"/>
</svg>
