<svg width="24" height="25" viewBox="0 0 24 25" fill="none" xmlns="http://www.w3.org/2000/svg">
<path d="M12 18.9854C11.7929 18.9854 11.625 19.1532 11.625 19.3604C11.625 19.5675 11.7929 19.7354 12 19.7354C12.2071 19.7354 12.375 19.5675 12.375 19.3604C12.375 19.1532 12.2071 18.9854 12 18.9854V18.9854" stroke="black" stroke-width="1.5" stroke-linecap="round" stroke-linejoin="round"/>
<path d="M12 15.9854V8.48535" stroke="black" stroke-width="1.5" stroke-linecap="round"/>
<path fill-rule="evenodd" clip-rule="evenodd" d="M13.621 1.99511C13.3174 1.377 12.6887 0.985352 12 0.985352C11.3114 0.985352 10.6826 1.377 10.379 1.99511L0.906011 21.2931C0.674185 21.7647 0.702213 22.3226 0.980139 22.7685C1.25807 23.2145 1.74652 23.4855 2.27201 23.4851H21.728C22.2535 23.4855 22.742 23.2145 23.0199 22.7685C23.2978 22.3226 23.3258 21.7647 23.094 21.2931L13.621 1.99511Z" stroke="black" stroke-width="1.5" stroke-linecap="round" stroke-linejoin="round"/>
</svg>
