<svg width="16" height="18" viewBox="0 0 16 18" fill="none" xmlns="http://www.w3.org/2000/svg">
<path fill-rule="evenodd" clip-rule="evenodd" d="M8 16.5C11.0376 16.5 13.5 14.0376 13.5 11C13.5 7.96243 11.0376 5.5 8 5.5C4.96243 5.5 2.5 7.96243 2.5 11C2.5 14.0376 4.96243 16.5 8 16.5Z" stroke="black" stroke-width="1.5" stroke-linecap="round" stroke-linejoin="round"/>
<path fill-rule="evenodd" clip-rule="evenodd" d="M8.35402 7.86132L9.18602 9.49999H10.604C10.7638 9.49609 10.9096 9.59054 10.9714 9.73793C11.0331 9.88532 10.9982 10.0555 10.8834 10.1667L9.58135 11.448L10.3027 13.1047C10.3679 13.2602 10.3264 13.4401 10.1997 13.5514C10.0729 13.6628 9.88924 13.6807 9.74335 13.596L8.00002 12.6127L6.25669 13.5933C6.1108 13.678 5.92711 13.6601 5.80036 13.5488C5.67362 13.4374 5.63215 13.2576 5.69735 13.102L6.41869 11.4453L5.11669 10.164C5.00186 10.0528 4.96693 9.88266 5.02869 9.73526C5.09045 9.58787 5.23626 9.49342 5.39602 9.49732H6.81402L7.64669 7.85865C7.71645 7.72781 7.85288 7.64629 8.00116 7.64685C8.14944 7.64741 8.28524 7.72995 8.35402 7.86132Z" stroke="black" stroke-width="1.5" stroke-linecap="round" stroke-linejoin="round"/>
<path d="M11.5 6.75733L13.5 1.5H2.5L4.5 6.75733" stroke="black" stroke-width="1.5" stroke-linecap="round" stroke-linejoin="round"/>
<path d="M6.75333 5.642L6 1.5" stroke="black" stroke-width="1.5" stroke-linecap="round" stroke-linejoin="round"/>
<path d="M9.24658 5.642L9.99992 1.5" stroke="black" stroke-width="1.5" stroke-linecap="round" stroke-linejoin="round"/>
</svg>
