<svg width="24" height="25" viewBox="0 0 24 25" fill="none" xmlns="http://www.w3.org/2000/svg">
<path d="M6.75 11.2883L9.2 14.7693C9.38884 15.0506 9.70177 15.2234 10.0404 15.2336C10.379 15.2437 10.7017 15.0898 10.907 14.8203L18.75 4.89331" stroke="black" stroke-width="1.5" stroke-linecap="round" stroke-linejoin="round"/>
<path fill-rule="evenodd" clip-rule="evenodd" d="M3 0.984375C2.17157 0.984375 1.5 1.65595 1.5 2.48438V11.4844C1.5 16.2974 8.734 21.6534 11.193 23.2444C11.6834 23.5643 12.3166 23.5643 12.807 23.2444C15.266 21.6534 22.5 16.2974 22.5 11.4844V2.48438C22.5 2.08655 22.342 1.70502 22.0607 1.42371C21.7794 1.14241 21.3978 0.984375 21 0.984375L3 0.984375Z" stroke="black" stroke-width="1.5" stroke-linecap="round" stroke-linejoin="round"/>
</svg>
