<svg width="18" height="18" viewBox="0 0 18 18" fill="none" xmlns="http://www.w3.org/2000/svg">
<path fill-rule="evenodd" clip-rule="evenodd" d="M9 16.7354C13.1421 16.7354 16.5 13.3775 16.5 9.23535C16.5 5.09322 13.1421 1.73535 9 1.73535C4.85786 1.73535 1.5 5.09322 1.5 9.23535C1.5 13.3775 4.85786 16.7354 9 16.7354Z" stroke="black" stroke-width="1.5" stroke-linecap="round" stroke-linejoin="round"/>
<path fill-rule="evenodd" clip-rule="evenodd" d="M12.7197 6.24607C12.7906 6.0376 12.7369 5.80695 12.5812 5.65124C12.4255 5.49554 12.1948 5.44183 11.9864 5.51273L6.95703 7.19273L11.0424 11.2781L12.7197 6.24607Z" stroke="black" stroke-width="1.5" stroke-linecap="round" stroke-linejoin="round"/>
<path d="M6.95685 7.19287L5.27885 12.2249C5.20794 12.4333 5.26165 12.664 5.41736 12.8197C5.57306 12.9754 5.80371 13.0291 6.01218 12.9582L11.0442 11.2809" stroke="black" stroke-width="1.5" stroke-linecap="round" stroke-linejoin="round"/>
</svg>
