<svg width="20" height="19" viewBox="0 0 20 19" fill="none" xmlns="http://www.w3.org/2000/svg">
<path fill-rule="evenodd" clip-rule="evenodd" d="M18.3998 1.77578C18.4099 1.62053 18.3554 1.46799 18.2491 1.35435C18.1429 1.2407 17.9943 1.17607 17.8388 1.17578H2.12475C1.9691 1.17585 1.82043 1.24041 1.71412 1.35411C1.60782 1.46781 1.55338 1.62047 1.56375 1.77578C1.83483 5.55035 4.58507 8.68315 8.29275 9.44078V16.847C8.29283 17.0652 8.4191 17.2637 8.6167 17.3562C8.8143 17.4488 9.04759 17.4187 9.21525 17.279L11.4653 15.404C11.5937 15.2973 11.6679 15.139 11.6678 14.972V9.44078C15.3767 8.68457 18.1286 5.55136 18.3998 1.77578Z" stroke="black" stroke-width="1.5" stroke-linecap="round" stroke-linejoin="round"/>
</svg>
