<svg width="24" height="25" viewBox="0 0 24 25" fill="none" xmlns="http://www.w3.org/2000/svg">
<path d="M10.082 9.73535C9.23575 8.78349 8.02364 8.23782 6.75 8.23535H5.25C2.76472 8.23535 0.75 10.2501 0.75 12.7354C0.75 15.2206 2.76472 17.2354 5.25 17.2354H6.75C8.02353 17.2324 9.23544 16.6868 10.082 15.7354" stroke="black" stroke-width="1.5" stroke-linecap="round" stroke-linejoin="round"/>
<path d="M13.918 9.73535C14.7641 8.78338 15.9763 8.23769 17.25 8.23535H18.75C21.2352 8.23535 23.25 10.2501 23.25 12.7354C23.25 15.2206 21.2352 17.2354 18.75 17.2354H17.25C15.9764 17.2326 14.7644 16.687 13.918 15.7354" stroke="black" stroke-width="1.5" stroke-linecap="round" stroke-linejoin="round"/>
<path d="M6.75 12.7344H17.25" stroke="black" stroke-width="1.5" stroke-linecap="round" stroke-linejoin="round"/>
</svg>
