<svg width="24" height="25" viewBox="0 0 24 25" fill="none" xmlns="http://www.w3.org/2000/svg">
<path d="M6.75 17.4844L17.25 6.98438" stroke="black" stroke-width="1.5" stroke-linecap="round" stroke-linejoin="round"/>
<path d="M7.73513 12.2564C6.46293 12.1831 5.21989 12.6561 4.31813 13.5564L2.06813 15.8064C0.931311 16.9433 0.487333 18.6002 0.903437 20.1531C1.31954 21.7061 2.53251 22.919 4.08544 23.3351C5.63836 23.7512 7.29531 23.3073 8.43213 22.1704L10.6821 19.9204C11.5825 19.0187 12.0554 17.7756 11.9821 16.5034" stroke="black" stroke-width="1.5" stroke-linecap="round" stroke-linejoin="round"/>
<path d="M16.2652 12.2114C17.5374 12.2845 18.7804 11.8117 19.6822 10.9114L21.9322 8.66138C23.0691 7.52456 23.513 5.86761 23.0969 4.31469C22.6808 2.76176 21.4679 1.54879 19.9149 1.13269C18.362 0.716581 16.7051 1.16056 15.5682 2.29738L13.3182 4.54738C12.42 5.45021 11.949 6.693 12.0232 7.96438" stroke="black" stroke-width="1.5" stroke-linecap="round" stroke-linejoin="round"/>
</svg>
