<svg width="24" height="25" viewBox="0 0 24 25" fill="none" xmlns="http://www.w3.org/2000/svg">
<path d="M9.36403 18.7354L8.43203 19.6674C6.67466 21.4248 3.8254 21.4248 2.06803 19.6674C0.310657 17.91 0.310657 15.0608 2.06803 13.3034L6.84103 8.5294C8.50064 6.86603 11.1607 6.75955 12.9479 8.28494C14.7352 9.81033 15.048 12.454 13.666 14.3544" stroke="black" stroke-width="1.5" stroke-linecap="round" stroke-linejoin="round"/>
<path d="M14.8183 5.8024L15.5683 5.0524C17.3257 3.29503 20.175 3.29503 21.9323 5.0524C23.6897 6.80977 23.6897 9.65903 21.9323 11.4164L17.1593 16.1894C15.4994 17.8521 12.8397 17.9579 11.0529 16.4324C9.26608 14.9069 8.95354 12.2635 10.3353 10.3634" stroke="black" stroke-width="1.5" stroke-linecap="round" stroke-linejoin="round"/>
</svg>
