<svg width="24" height="25" viewBox="0 0 24 25" fill="none" xmlns="http://www.w3.org/2000/svg">
<path d="M14.25 16.7354H13.5C12.6716 16.7354 12 16.0638 12 15.2354V11.4854C12 11.0711 11.6642 10.7354 11.25 10.7354H10.5" stroke="black" stroke-width="1.5" stroke-linecap="round" stroke-linejoin="round"/>
<path d="M11.625 6.98535C11.4179 6.98535 11.25 7.15324 11.25 7.36035C11.25 7.56746 11.4179 7.73535 11.625 7.73535C11.8321 7.73535 12 7.56746 12 7.36035C12 7.15324 11.8321 6.98535 11.625 6.98535V6.98535" stroke="black" stroke-width="1.5" stroke-linecap="round" stroke-linejoin="round"/>
<path fill-rule="evenodd" clip-rule="evenodd" d="M12 23.4854C18.2132 23.4854 23.25 18.4486 23.25 12.2354C23.25 6.02215 18.2132 0.985352 12 0.985352C5.7868 0.985352 0.75 6.02215 0.75 12.2354C0.75 18.4486 5.7868 23.4854 12 23.4854Z" stroke="black" stroke-width="1.5" stroke-linecap="round" stroke-linejoin="round"/>
</svg>
