<svg width="24" height="25" viewBox="0 0 24 25" fill="none" xmlns="http://www.w3.org/2000/svg">
<path fill-rule="evenodd" clip-rule="evenodd" d="M0.75 2.48242C0.75 1.65399 1.42157 0.982422 2.25 0.982422H21.75C22.5784 0.982422 23.25 1.65399 23.25 2.48242V3.98242C23.25 4.81085 22.5784 5.48242 21.75 5.48242H2.25C1.42157 5.48242 0.75 4.81085 0.75 3.98242V2.48242Z" stroke="black" stroke-width="1.5" stroke-linecap="round" stroke-linejoin="round"/>
<path fill-rule="evenodd" clip-rule="evenodd" d="M0.75 11.4824C0.75 10.654 1.42157 9.98242 2.25 9.98242H21.75C22.5784 9.98242 23.25 10.654 23.25 11.4824V12.9824C23.25 13.8108 22.5784 14.4824 21.75 14.4824H2.25C1.42157 14.4824 0.75 13.8108 0.75 12.9824V11.4824Z" stroke="black" stroke-width="1.5" stroke-linecap="round" stroke-linejoin="round"/>
<path fill-rule="evenodd" clip-rule="evenodd" d="M0.75 20.4824C0.75 19.654 1.42157 18.9824 2.25 18.9824H21.75C22.5784 18.9824 23.25 19.654 23.25 20.4824V21.9824C23.25 22.8108 22.5784 23.4824 21.75 23.4824H2.25C1.42157 23.4824 0.75 22.8108 0.75 21.9824V20.4824Z" stroke="black" stroke-width="1.5" stroke-linecap="round" stroke-linejoin="round"/>
</svg>
