<svg width="24" height="25" viewBox="0 0 24 25" fill="none" xmlns="http://www.w3.org/2000/svg">
<path fill-rule="evenodd" clip-rule="evenodd" d="M0.75 2.48242C0.75 1.65399 1.42157 0.982422 2.25 0.982422H8.25C9.07843 0.982422 9.75 1.65399 9.75 2.48242V8.48242C9.75 9.31085 9.07843 9.98242 8.25 9.98242H2.25C1.42157 9.98242 0.75 9.31085 0.75 8.48242V2.48242Z" stroke="black" stroke-width="1.5" stroke-linecap="round" stroke-linejoin="round"/>
<path fill-rule="evenodd" clip-rule="evenodd" d="M0.75 15.9824C0.75 15.154 1.42157 14.4824 2.25 14.4824H8.25C9.07843 14.4824 9.75 15.154 9.75 15.9824V21.9824C9.75 22.8108 9.07843 23.4824 8.25 23.4824H2.25C1.42157 23.4824 0.75 22.8108 0.75 21.9824V15.9824Z" stroke="black" stroke-width="1.5" stroke-linecap="round" stroke-linejoin="round"/>
<path fill-rule="evenodd" clip-rule="evenodd" d="M14.25 2.48242C14.25 1.65399 14.9216 0.982422 15.75 0.982422H21.75C22.5784 0.982422 23.25 1.65399 23.25 2.48242V8.48242C23.25 9.31085 22.5784 9.98242 21.75 9.98242H15.75C14.9216 9.98242 14.25 9.31085 14.25 8.48242V2.48242Z" stroke="black" stroke-width="1.5" stroke-linecap="round" stroke-linejoin="round"/>
<path fill-rule="evenodd" clip-rule="evenodd" d="M14.25 15.9824C14.25 15.154 14.9216 14.4824 15.75 14.4824H21.75C22.5784 14.4824 23.25 15.154 23.25 15.9824V21.9824C23.25 22.8108 22.5784 23.4824 21.75 23.4824H15.75C14.9216 23.4824 14.25 22.8108 14.25 21.9824V15.9824Z" stroke="black" stroke-width="1.5" stroke-linecap="round" stroke-linejoin="round"/>
</svg>
