<svg width="24" height="25" viewBox="0 0 24 25" fill="none" xmlns="http://www.w3.org/2000/svg">
<path fill-rule="evenodd" clip-rule="evenodd" d="M0.75 2.48242C0.75 1.65399 1.42157 0.982422 2.25 0.982422H3.75C4.57843 0.982422 5.25 1.65399 5.25 2.48242V21.9824C5.25 22.8108 4.57843 23.4824 3.75 23.4824H2.25C1.42157 23.4824 0.75 22.8108 0.75 21.9824V2.48242Z" stroke="black" stroke-width="1.5" stroke-linecap="round" stroke-linejoin="round"/>
<path fill-rule="evenodd" clip-rule="evenodd" d="M9.75098 2.48242C9.75098 1.65399 10.4225 0.982422 11.251 0.982422H12.751C13.5794 0.982422 14.251 1.65399 14.251 2.48242V21.9824C14.251 22.8108 13.5794 23.4824 12.751 23.4824H11.251C10.4225 23.4824 9.75098 22.8108 9.75098 21.9824V2.48242Z" stroke="black" stroke-width="1.5" stroke-linecap="round" stroke-linejoin="round"/>
<path fill-rule="evenodd" clip-rule="evenodd" d="M18.75 2.48242C18.75 1.65399 19.4216 0.982422 20.25 0.982422H21.75C22.5784 0.982422 23.25 1.65399 23.25 2.48242V21.9824C23.25 22.8108 22.5784 23.4824 21.75 23.4824H20.25C19.4216 23.4824 18.75 22.8108 18.75 21.9824V2.48242Z" stroke="black" stroke-width="1.5" stroke-linecap="round" stroke-linejoin="round"/>
</svg>
