<svg width="20" height="19" viewBox="0 0 20 19" fill="none" xmlns="http://www.w3.org/2000/svg">
<path fill-rule="evenodd" clip-rule="evenodd" d="M1.5625 2.29541C1.5625 1.46698 2.23407 0.79541 3.0625 0.79541H16.9375C17.7659 0.79541 18.4375 1.46698 18.4375 2.29541V6.04541C18.4375 6.87384 17.7659 7.54541 16.9375 7.54541H3.0625C2.23407 7.54541 1.5625 6.87384 1.5625 6.04541V2.29541Z" stroke="black" stroke-width="1.5" stroke-linecap="round" stroke-linejoin="round"/>
<path fill-rule="evenodd" clip-rule="evenodd" d="M1.5625 12.4204C1.5625 11.592 2.23407 10.9204 3.0625 10.9204H16.9375C17.7659 10.9204 18.4375 11.592 18.4375 12.4204V16.1704C18.4375 16.9988 17.7659 17.6704 16.9375 17.6704H3.0625C2.23407 17.6704 1.5625 16.9988 1.5625 16.1704V12.4204Z" stroke="black" stroke-width="1.5" stroke-linecap="round" stroke-linejoin="round"/>
</svg>
