<svg width="20" height="19" viewBox="0 0 20 19" fill="none" xmlns="http://www.w3.org/2000/svg">
<path fill-rule="evenodd" clip-rule="evenodd" d="M4.9375 16.5486C5.33289 16.5545 5.72577 16.6125 6.106 16.7211L8.8315 17.4996C9.23321 17.6144 9.64895 17.6727 10.0668 17.6729H13.7305C16.0415 17.6729 17.9769 15.9223 18.208 13.6229L18.433 9.79785C18.5151 8.18771 17.4468 6.74436 15.883 6.35235L14.7917 6.11385C14.2899 5.98941 13.9375 5.53891 13.9375 5.02185V2.48535C13.9375 1.55337 13.182 0.797852 12.25 0.797852C11.318 0.797852 10.5625 1.55337 10.5625 2.48535V3.65085C10.5625 6.75745 8.0441 9.27585 4.9375 9.27585L4.9375 16.5486Z" stroke="black" stroke-width="1.5" stroke-linecap="round" stroke-linejoin="round"/>
<path fill-rule="evenodd" clip-rule="evenodd" d="M1.5625 7.54785H4.9375V17.6729H1.5625V7.54785Z" stroke="black" stroke-width="1.5" stroke-linecap="round" stroke-linejoin="round"/>
</svg>
