<svg width="24" height="25" viewBox="0 0 24 25" fill="none" xmlns="http://www.w3.org/2000/svg">
<path fill-rule="evenodd" clip-rule="evenodd" d="M12.8177 14.7522L15.3627 12.2072L17.1147 12.6772C17.6567 12.8218 18.2347 12.6665 18.6313 12.2699C19.028 11.8732 19.1832 11.2952 19.0387 10.7532L18.5687 9.0012L19.3527 8.2172L21.1047 8.6872C21.6468 8.83242 22.2252 8.67742 22.622 8.28057C23.0189 7.88372 23.1739 7.30532 23.0287 6.7632L22.5597 5.0112C23.4798 4.09082 23.4795 2.59881 22.5592 1.6787C21.6388 0.758596 20.1468 0.75882 19.2267 1.6792L9.48566 11.4202C6.71695 10.2463 3.50466 11.1989 1.82353 13.6924C0.142399 16.1859 0.463884 19.521 2.59035 21.6475C4.71682 23.774 8.05193 24.0955 10.5454 22.4143C13.0389 20.7332 13.9915 17.5209 12.8177 14.7522Z" stroke="black" stroke-width="1.5" stroke-linecap="round" stroke-linejoin="round"/>
<path fill-rule="evenodd" clip-rule="evenodd" d="M5.92159 19.8871C6.78923 19.8871 7.49259 19.1838 7.49259 18.3161C7.49259 17.4485 6.78923 16.7451 5.92159 16.7451C5.05395 16.7451 4.35059 17.4485 4.35059 18.3161C4.35059 19.1838 5.05395 19.8871 5.92159 19.8871Z" stroke="black" stroke-width="1.5" stroke-linecap="round" stroke-linejoin="round"/>
</svg>
