<svg width="24" height="25" viewBox="0 0 24 25" fill="none" xmlns="http://www.w3.org/2000/svg">
<path fill-rule="evenodd" clip-rule="evenodd" d="M12.7498 10.0422C12.749 6.92437 10.3603 4.32668 7.25351 4.06491C4.14669 3.80314 1.35708 5.96453 0.834607 9.03828C0.312137 12.112 2.23093 15.0737 5.24976 15.8532V21.9892C5.24976 22.8176 5.92134 23.4892 6.74976 23.4892C7.57819 23.4892 8.24976 22.8176 8.24976 21.9892V15.8532C10.8994 15.1691 12.7505 12.7788 12.7498 10.0422Z" stroke="black" stroke-width="1.5" stroke-linecap="round" stroke-linejoin="round"/>
<path d="M13.5632 15.9856C14.3468 15.8774 15.101 15.6146 15.7822 15.2126L20.6892 20.1186C21.2778 20.687 22.2133 20.6789 22.7919 20.1003C23.3705 19.5217 23.3787 18.5861 22.8102 17.9976L17.9002 13.0916C19.2855 10.7452 18.9157 7.75989 16.9998 5.82238C15.0839 3.88486 12.103 3.48166 9.74121 4.84056" stroke="black" stroke-width="1.5" stroke-linecap="round" stroke-linejoin="round"/>
<path fill-rule="evenodd" clip-rule="evenodd" d="M6.75 10.7925C7.57843 10.7925 8.25 10.1209 8.25 9.29248C8.25 8.46405 7.57843 7.79248 6.75 7.79248C5.92157 7.79248 5.25 8.46405 5.25 9.29248C5.25 10.1209 5.92157 10.7925 6.75 10.7925Z" stroke="black" stroke-width="1.5" stroke-linecap="round" stroke-linejoin="round"/>
<path d="M6.75 7.79235V3.23535C6.75 1.99271 7.75736 0.985352 9 0.985352C10.2426 0.985352 11.25 1.99271 11.25 3.23535V4.22435" stroke="black" stroke-width="1.5" stroke-linecap="round" stroke-linejoin="round"/>
</svg>
