<svg width="24" height="25" viewBox="0 0 24 25" fill="none" xmlns="http://www.w3.org/2000/svg">
<path d="M9.75 23.4893H3.75C2.92157 23.4893 2.25 22.8177 2.25 21.9893V2.48926C2.25 1.66083 2.92157 0.989258 3.75 0.989258H14.25C15.0784 0.989258 15.75 1.66083 15.75 2.48926V7.73526" stroke="black" stroke-width="1.5" stroke-linecap="round" stroke-linejoin="round"/>
<path d="M5.62499 11.8644C5.47295 11.8644 5.33597 11.9562 5.27817 12.0968C5.22037 12.2374 5.25319 12.399 5.36127 12.5059C5.46935 12.6129 5.6313 12.644 5.77129 12.5846C5.91128 12.5253 6.00161 12.3874 5.99999 12.2354C5.99999 12.0282 5.8321 11.8604 5.62499 11.8604V11.8604" stroke="black" stroke-width="1.5" stroke-linecap="round" stroke-linejoin="round"/>
<path fill-rule="evenodd" clip-rule="evenodd" d="M12.75 17.4893C12.75 16.6608 13.4216 15.9893 14.25 15.9893H20.25C21.0784 15.9893 21.75 16.6608 21.75 17.4893V21.9893C21.75 22.8177 21.0784 23.4893 20.25 23.4893H14.25C13.4216 23.4893 12.75 22.8177 12.75 21.9893V17.4893Z" stroke="black" stroke-width="1.5" stroke-linecap="round" stroke-linejoin="round"/>
<path d="M14.25 15.9893V14.4893C14.25 12.8324 15.5931 11.4893 17.25 11.4893V11.4893C18.9069 11.4893 20.25 12.8324 20.25 14.4893V15.9893" stroke="black" stroke-width="1.5" stroke-linecap="round" stroke-linejoin="round"/>
<path d="M17.25 19.3643C17.0429 19.3643 16.875 19.5322 16.875 19.7393C16.875 19.9464 17.0429 20.1143 17.25 20.1143C17.4571 20.1143 17.625 19.9464 17.625 19.7393C17.625 19.5322 17.4571 19.3643 17.25 19.3643V19.3643" stroke="black" stroke-width="1.5" stroke-linecap="round" stroke-linejoin="round"/>
</svg>
