<svg width="20" height="19" viewBox="0 0 20 19" fill="none" xmlns="http://www.w3.org/2000/svg">
<path d="M18.4375 6.98554V3.72304C18.4376 3.26293 18.1575 2.84914 17.7303 2.67829L13.2303 0.878289C12.9621 0.771039 12.6629 0.771039 12.3948 0.878289L7.60526 2.79454C7.33708 2.90179 7.03793 2.90179 6.76976 2.79454L2.33426 1.02004C2.16047 0.950389 1.96342 0.971772 1.80861 1.07708C1.65381 1.18239 1.56155 1.35782 1.56251 1.54504V12.3248C1.56243 12.7849 1.84254 13.1987 2.26976 13.3695L6.76976 15.1695C7.03793 15.2768 7.33708 15.2768 7.60526 15.1695L9.76601 14.3048" stroke="black" stroke-width="1.5" stroke-linecap="round" stroke-linejoin="round"/>
<path d="M7.1875 2.875V15.25" stroke="black" stroke-width="1.5" stroke-linecap="round" stroke-linejoin="round"/>
<path d="M12.8125 0.797852V6.42285" stroke="black" stroke-width="1.5" stroke-linecap="round" stroke-linejoin="round"/>
<path d="M15.0625 11.8223C15.2178 11.8223 15.3438 11.9482 15.3438 12.1035" stroke="black" stroke-width="1.5" stroke-linecap="round" stroke-linejoin="round"/>
<path d="M14.7812 12.1035C14.7812 11.9482 14.9072 11.8223 15.0625 11.8223" stroke="black" stroke-width="1.5" stroke-linecap="round" stroke-linejoin="round"/>
<path d="M15.0625 12.3857C14.9072 12.3857 14.7812 12.2598 14.7812 12.1045" stroke="black" stroke-width="1.5" stroke-linecap="round" stroke-linejoin="round"/>
<path d="M15.3438 12.1035C15.3438 12.2588 15.2178 12.3848 15.0625 12.3848" stroke="black" stroke-width="1.5" stroke-linecap="round" stroke-linejoin="round"/>
<path fill-rule="evenodd" clip-rule="evenodd" d="M15.0625 8.72852C16.9265 8.72852 18.4375 10.2396 18.4375 12.1035C18.4375 13.5443 16.4215 16.2855 15.5058 17.457C15.3991 17.5935 15.2356 17.6732 15.0625 17.6732C14.8894 17.6732 14.7259 17.5935 14.6192 17.457C13.7035 16.2863 11.6875 13.5443 11.6875 12.1035C11.6875 10.2396 13.1985 8.72852 15.0625 8.72852V8.72852Z" stroke="black" stroke-width="1.5" stroke-linecap="round" stroke-linejoin="round"/>
</svg>
