<svg width="24" height="25" viewBox="0 0 24 25" fill="none" xmlns="http://www.w3.org/2000/svg">
<path fill-rule="evenodd" clip-rule="evenodd" d="M17.25 23.4854C20.5637 23.4854 23.25 20.7991 23.25 17.4854C23.25 14.1716 20.5637 11.4854 17.25 11.4854C13.9363 11.4854 11.25 14.1716 11.25 17.4854C11.25 20.7991 13.9363 23.4854 17.25 23.4854Z" stroke="black" stroke-width="1.5" stroke-linecap="round" stroke-linejoin="round"/>
<path d="M13.0078 21.7264L21.4918 13.2424" stroke="black" stroke-width="1.5" stroke-linecap="round" stroke-linejoin="round"/>
<path d="M10.782 10.7483C9.66897 9.76666 8.23405 9.22821 6.75 9.23529C3.70837 9.21145 1.13012 11.4674 0.75 14.4853" stroke="black" stroke-width="1.5" stroke-linecap="round" stroke-linejoin="round"/>
<path fill-rule="evenodd" clip-rule="evenodd" d="M6.75 7.73535C8.61396 7.73535 10.125 6.22431 10.125 4.36035C10.125 2.49639 8.61396 0.985352 6.75 0.985352C4.88604 0.985352 3.375 2.49639 3.375 4.36035C3.375 6.22431 4.88604 7.73535 6.75 7.73535Z" stroke="black" stroke-width="1.5" stroke-linecap="round" stroke-linejoin="round"/>
<path fill-rule="evenodd" clip-rule="evenodd" d="M16.5 6.23535C17.9497 6.23535 19.125 5.0601 19.125 3.61035C19.125 2.1606 17.9497 0.985352 16.5 0.985352C15.0503 0.985352 13.875 2.1606 13.875 3.61035C13.875 5.0601 15.0503 6.23535 16.5 6.23535Z" stroke="black" stroke-width="1.5" stroke-linecap="round" stroke-linejoin="round"/>
<path d="M20.4002 9.23528C19.6739 7.97798 18.3854 7.14843 16.9402 7.00758C15.4951 6.86673 14.0707 7.43189 13.1152 8.52528" stroke="black" stroke-width="1.5" stroke-linecap="round" stroke-linejoin="round"/>
</svg>
