<svg width="24" height="25" viewBox="0 0 24 25" fill="none" xmlns="http://www.w3.org/2000/svg">
<path d="M17.25 20.4854C17.0429 20.4854 16.875 20.6532 16.875 20.8604C16.875 21.0675 17.0429 21.2354 17.25 21.2354C17.4571 21.2354 17.625 21.0675 17.625 20.8604C17.6253 20.7608 17.5858 20.6653 17.5155 20.5949C17.4451 20.5245 17.3495 20.4851 17.25 20.4854V20.4854" stroke="black" stroke-width="1.5" stroke-linecap="round" stroke-linejoin="round"/>
<path d="M17.25 18.2354V15.2354" stroke="black" stroke-width="1.5" stroke-linecap="round" stroke-linejoin="round"/>
<path fill-rule="evenodd" clip-rule="evenodd" d="M23.0616 20.9173C23.3369 21.4673 23.3077 22.1207 22.9843 22.6439C22.661 23.1671 22.0897 23.4855 21.4746 23.4853H13.0236C12.4086 23.4855 11.8373 23.1671 11.5139 22.6439C11.1906 22.1207 11.1613 21.4673 11.4366 20.9173L15.6626 12.4653C15.9632 11.8646 16.5774 11.4851 17.2491 11.4851C17.9209 11.4851 18.535 11.8646 18.8356 12.4653L23.0616 20.9173Z" stroke="black" stroke-width="1.5" stroke-linecap="round" stroke-linejoin="round"/>
<path d="M11.6 11.6353C10.4533 10.114 8.65505 9.2241 6.75 9.23529C3.70837 9.21145 1.13012 11.4674 0.75 14.4853" stroke="black" stroke-width="1.5" stroke-linecap="round" stroke-linejoin="round"/>
<path fill-rule="evenodd" clip-rule="evenodd" d="M6.75 7.73535C8.61396 7.73535 10.125 6.22431 10.125 4.36035C10.125 2.49639 8.61396 0.985352 6.75 0.985352C4.88604 0.985352 3.375 2.49639 3.375 4.36035C3.375 6.22431 4.88604 7.73535 6.75 7.73535Z" stroke="black" stroke-width="1.5" stroke-linecap="round" stroke-linejoin="round"/>
<path fill-rule="evenodd" clip-rule="evenodd" d="M16.5 6.23535C17.9497 6.23535 19.125 5.0601 19.125 3.61035C19.125 2.1606 17.9497 0.985352 16.5 0.985352C15.0503 0.985352 13.875 2.1606 13.875 3.61035C13.875 5.0601 15.0503 6.23535 16.5 6.23535Z" stroke="black" stroke-width="1.5" stroke-linecap="round" stroke-linejoin="round"/>
<path d="M20.4002 9.23528C19.6739 7.97798 18.3854 7.14843 16.9402 7.00758C15.4951 6.86673 14.0707 7.43189 13.1152 8.52528" stroke="black" stroke-width="1.5" stroke-linecap="round" stroke-linejoin="round"/>
</svg>
