<svg width="24" height="25" viewBox="0 0 24 25" fill="none" xmlns="http://www.w3.org/2000/svg">
<path fill-rule="evenodd" clip-rule="evenodd" d="M11.9873 23.4883C13.4371 23.4883 14.6123 22.313 14.6123 20.8633C14.6123 19.4135 13.4371 18.2383 11.9873 18.2383C10.5376 18.2383 9.3623 19.4135 9.3623 20.8633C9.3623 22.313 10.5376 23.4883 11.9873 23.4883Z" stroke="black" stroke-width="1.5" stroke-linecap="round" stroke-linejoin="round"/>
<path fill-rule="evenodd" clip-rule="evenodd" d="M11.9873 6.23828C13.4371 6.23828 14.6123 5.06303 14.6123 3.61328C14.6123 2.16353 13.4371 0.988281 11.9873 0.988281C10.5376 0.988281 9.3623 2.16353 9.3623 3.61328C9.3623 5.06303 10.5376 6.23828 11.9873 6.23828Z" stroke="black" stroke-width="1.5" stroke-linecap="round" stroke-linejoin="round"/>
<path fill-rule="evenodd" clip-rule="evenodd" d="M11.9873 14.8633C13.4371 14.8633 14.6123 13.688 14.6123 12.2383C14.6123 10.7885 13.4371 9.61328 11.9873 9.61328C10.5376 9.61328 9.3623 10.7885 9.3623 12.2383C9.3623 13.688 10.5376 14.8633 11.9873 14.8633Z" stroke="black" stroke-width="1.5" stroke-linecap="round" stroke-linejoin="round"/>
</svg>
