<svg width="24" height="25" viewBox="0 0 24 25" fill="none" xmlns="http://www.w3.org/2000/svg">
<path fill-rule="evenodd" clip-rule="evenodd" d="M3.375 14.8833C4.82475 14.8833 6 13.708 6 12.2583C6 10.8086 4.82475 9.6333 3.375 9.6333C1.92525 9.6333 0.75 10.8086 0.75 12.2583C0.75 13.708 1.92525 14.8833 3.375 14.8833Z" stroke="black" stroke-width="1.5" stroke-linecap="round" stroke-linejoin="round"/>
<path fill-rule="evenodd" clip-rule="evenodd" d="M20.625 14.8833C22.0747 14.8833 23.25 13.708 23.25 12.2583C23.25 10.8086 22.0747 9.6333 20.625 9.6333C19.1753 9.6333 18 10.8086 18 12.2583C18 13.708 19.1753 14.8833 20.625 14.8833Z" stroke="black" stroke-width="1.5" stroke-linecap="round" stroke-linejoin="round"/>
<path fill-rule="evenodd" clip-rule="evenodd" d="M12 14.8833C13.4497 14.8833 14.625 13.708 14.625 12.2583C14.625 10.8086 13.4497 9.6333 12 9.6333C10.5503 9.6333 9.375 10.8086 9.375 12.2583C9.375 13.708 10.5503 14.8833 12 14.8833Z" stroke="black" stroke-width="1.5" stroke-linecap="round" stroke-linejoin="round"/>
</svg>
