<svg width="24" height="25" viewBox="0 0 24 25" fill="none" xmlns="http://www.w3.org/2000/svg">
<path fill-rule="evenodd" clip-rule="evenodd" d="M6 10.7354C5.17157 10.7354 4.5 11.4069 4.5 12.2354C4.5 13.0638 5.17157 13.7354 6 13.7354C6.82843 13.7354 7.5 13.0638 7.5 12.2354C7.5 11.4069 6.82843 10.7354 6 10.7354Z" stroke="black" stroke-width="1.5"/>
<path fill-rule="evenodd" clip-rule="evenodd" d="M18 10.7354C17.1716 10.7354 16.5 11.4069 16.5 12.2354C16.5 13.0638 17.1716 13.7354 18 13.7354C18.8284 13.7354 19.5 13.0638 19.5 12.2354C19.5 11.4069 18.8284 10.7354 18 10.7354Z" stroke="black" stroke-width="1.5"/>
<path fill-rule="evenodd" clip-rule="evenodd" d="M12 10.7354C11.1716 10.7354 10.5 11.4069 10.5 12.2354C10.5 13.0638 11.1716 13.7354 12 13.7354C12.8284 13.7354 13.5 13.0638 13.5 12.2354C13.5 11.4069 12.8284 10.7354 12 10.7354Z" stroke="black" stroke-width="1.5"/>
<path fill-rule="evenodd" clip-rule="evenodd" d="M12 23.4883C18.2132 23.4883 23.25 18.4515 23.25 12.2383C23.25 6.02508 18.2132 0.988281 12 0.988281C5.7868 0.988281 0.75 6.02508 0.75 12.2383C0.75 18.4515 5.7868 23.4883 12 23.4883Z" stroke="black" stroke-width="1.5" stroke-linecap="round" stroke-linejoin="round"/>
</svg>
