<svg width="24" height="24" viewBox="0 0 24 24" fill="none" xmlns="http://www.w3.org/2000/svg">
<path fill-rule="evenodd" clip-rule="evenodd" d="M3.75 2.24609C3.75 1.41767 4.42157 0.746094 5.25 0.746094H21.75C22.5784 0.746094 23.25 1.41767 23.25 2.24609V18.7461C23.25 19.5745 22.5784 20.2461 21.75 20.2461H5.25C4.42157 20.2461 3.75 19.5745 3.75 18.7461V2.24609Z" stroke="black" stroke-width="1.5" stroke-linecap="round" stroke-linejoin="round"/>
<path d="M20.25 23.2461H2.25C1.42157 23.2461 0.75 22.5745 0.75 21.7461V3.74609" stroke="black" stroke-width="1.5" stroke-linecap="round" stroke-linejoin="round"/>
<path d="M8.624 6.74609C8.41702 6.74665 8.24963 6.91478 8.25 7.12176C8.25037 7.32873 8.41836 7.49628 8.62533 7.49609C8.83231 7.49591 9 7.32807 9 7.12109C9 6.91399 8.83211 6.74609 8.625 6.74609" stroke="black" stroke-width="1.5" stroke-linecap="round" stroke-linejoin="round"/>
<path fill-rule="evenodd" clip-rule="evenodd" d="M20.25 15.746L16.38 9.90997C16.2422 9.70407 16.0114 9.57966 15.7636 9.57766C15.5159 9.57566 15.2832 9.69632 15.142 9.89997L13.147 12.75L11.91 11.761C11.7458 11.6299 11.5342 11.5737 11.3266 11.606C11.1191 11.6383 10.9345 11.7562 10.818 11.931L8.272 15.746H20.25Z" stroke="black" stroke-width="1.5" stroke-linecap="round" stroke-linejoin="round"/>
</svg>
