<svg width="24" height="25" viewBox="0 0 24 25" fill="none" xmlns="http://www.w3.org/2000/svg">
<path d="M9 9.23546C9.00029 7.70989 10.1455 6.42747 11.6613 6.25522C13.1771 6.08297 14.5808 7.07574 14.9234 8.56235C15.266 10.049 14.4383 11.5559 13 12.0645C12.4004 12.2765 11.9997 12.8435 12 13.4795V14.4855" stroke="black" stroke-width="1.5" stroke-linecap="round" stroke-linejoin="round"/>
<path d="M12 17.4854C11.7929 17.4854 11.625 17.6532 11.625 17.8604C11.625 18.0675 11.7929 18.2354 12 18.2354C12.2071 18.2354 12.375 18.0675 12.375 17.8604C12.375 17.6532 12.2071 17.4854 12 17.4854V17.4854" stroke="black" stroke-width="1.5" stroke-linecap="round" stroke-linejoin="round"/>
<path fill-rule="evenodd" clip-rule="evenodd" d="M12 23.4854C18.2132 23.4854 23.25 18.4486 23.25 12.2354C23.25 6.02215 18.2132 0.985352 12 0.985352C5.7868 0.985352 0.75 6.02215 0.75 12.2354C0.75 18.4486 5.7868 23.4854 12 23.4854Z" stroke="black" stroke-width="1.5"/>
</svg>
