<svg width="20" height="22" viewBox="0 0 20 22" fill="none" xmlns="http://www.w3.org/2000/svg">
<path fill-rule="evenodd" clip-rule="evenodd" d="M15.8825 20.2542L10.735 16.5108C10.2968 16.1923 9.70322 16.1923 9.265 16.5108L4.1175 20.2542C3.92757 20.3922 3.67629 20.4122 3.46694 20.3059C3.25759 20.1995 3.12551 19.9848 3.125 19.75V2.875C3.125 2.18464 3.68464 1.625 4.375 1.625H15.625C16.3154 1.625 16.875 2.18464 16.875 2.875V19.75C16.8745 19.9848 16.7424 20.1995 16.5331 20.3059C16.3237 20.4122 16.0724 20.3922 15.8825 20.2542V20.2542Z" stroke="black" stroke-width="1.5" stroke-linecap="round" stroke-linejoin="round"/>
<path fill-rule="evenodd" clip-rule="evenodd" d="M10.4417 5.82584L11.4825 7.87417H13.255C13.4547 7.86929 13.637 7.98736 13.7142 8.1716C13.7914 8.35584 13.7477 8.56857 13.6042 8.7075L11.9767 10.3092L12.8784 12.38C12.9599 12.5745 12.908 12.7993 12.7496 12.9385C12.5912 13.0776 12.3616 13.1001 12.1792 12.9942L10 11.765L7.82086 12.9908C7.6385 13.0967 7.40888 13.0743 7.25045 12.9351C7.09202 12.796 7.04019 12.5712 7.12169 12.3767L8.02336 10.3058L6.39586 8.70417C6.25233 8.56523 6.20867 8.35251 6.28586 8.16826C6.36306 7.98402 6.54533 7.86596 6.74503 7.87084H8.51753L9.55836 5.82584C9.64263 5.65931 9.8134 5.55434 10 5.55434C10.1867 5.55434 10.3574 5.65931 10.4417 5.82584Z" stroke="black" stroke-width="1.5" stroke-linecap="round" stroke-linejoin="round"/>
</svg>
