<svg width="25" height="25" viewBox="0 0 25 25" fill="none" xmlns="http://www.w3.org/2000/svg">
<path d="M4.73535 10.6177V6.11768C4.73535 5.28925 5.40692 4.61768 6.23535 4.61768H7.73535" stroke="black" stroke-width="1.5" stroke-linecap="round" stroke-linejoin="round"/>
<path d="M4.73535 7.61768H6.98535" stroke="black" stroke-width="1.5" stroke-linecap="round" stroke-linejoin="round"/>
<path d="M16.7354 10.6177V4.61768" stroke="black" stroke-width="1.5" stroke-linecap="round" stroke-linejoin="round"/>
<path d="M16.7354 4.61768H17.8604C18.8959 4.61768 19.7354 5.45714 19.7354 6.49268C19.7354 7.52821 18.8959 8.36768 17.8604 8.36768H16.7354" stroke="black" stroke-width="1.5" stroke-linecap="round" stroke-linejoin="round"/>
<path d="M19.7354 10.6177L17.4854 8.36768" stroke="black" stroke-width="1.5" stroke-linecap="round" stroke-linejoin="round"/>
<path fill-rule="evenodd" clip-rule="evenodd" d="M12.2354 4.61768C11.4069 4.61768 10.7354 5.28925 10.7354 6.11768V9.11768C10.7354 9.9461 11.4069 10.6177 12.2354 10.6177C13.0638 10.6177 13.7354 9.9461 13.7354 9.11768V6.11768C13.7354 5.28925 13.0638 4.61768 12.2354 4.61768Z" stroke="black" stroke-width="1.5" stroke-linecap="round" stroke-linejoin="round"/>
<path d="M1.73535 1.61768H22.7354" stroke="black" stroke-width="1.5" stroke-linecap="round" stroke-linejoin="round"/>
<path d="M1.73535 22.6177H22.7354" stroke="black" stroke-width="1.5" stroke-linecap="round" stroke-linejoin="round"/>
<path d="M21.2354 19.6177V13.6177" stroke="black" stroke-width="1.5" stroke-linecap="round" stroke-linejoin="round"/>
<path d="M19.7354 13.6177H22.7354" stroke="black" stroke-width="1.5" stroke-linecap="round" stroke-linejoin="round"/>
<path d="M1.73535 19.6177V13.6177" stroke="black" stroke-width="1.5" stroke-linecap="round" stroke-linejoin="round"/>
<path d="M1.73535 13.6177H2.86035C3.89589 13.6177 4.73535 14.4571 4.73535 15.4927C4.73535 16.5282 3.89589 17.3677 2.86035 17.3677H1.73535" stroke="black" stroke-width="1.5" stroke-linecap="round" stroke-linejoin="round"/>
<path d="M4.73535 19.6177L2.48535 17.3677" stroke="black" stroke-width="1.5" stroke-linecap="round" stroke-linejoin="round"/>
<path d="M13.7354 19.6177V13.6177L16.7354 19.6177V13.6177" stroke="black" stroke-width="1.5" stroke-linecap="round" stroke-linejoin="round"/>
<path d="M10.7354 19.6177H9.23535C8.40692 19.6177 7.73535 18.9461 7.73535 18.1177V15.1177C7.73535 14.2892 8.40692 13.6177 9.23535 13.6177H10.7354" stroke="black" stroke-width="1.5" stroke-linecap="round" stroke-linejoin="round"/>
<path d="M7.73535 16.6177H10.7354" stroke="black" stroke-width="1.5" stroke-linecap="round" stroke-linejoin="round"/>
</svg>
