<svg width="24" height="25" viewBox="0 0 24 25" fill="none" xmlns="http://www.w3.org/2000/svg">
<path fill-rule="evenodd" clip-rule="evenodd" d="M17.25 15.9854H11.25L5.25 20.4854V15.9854H2.25C1.42157 15.9854 0.75 15.3138 0.75 14.4854V2.48535C0.75 1.65692 1.42157 0.985352 2.25 0.985352H17.25C18.0784 0.985352 18.75 1.65692 18.75 2.48535V14.4854C18.75 15.3138 18.0784 15.9854 17.25 15.9854Z" stroke="black" stroke-width="1.5" stroke-linecap="round" stroke-linejoin="round"/>
<path d="M21 8.48535H21.75C22.5784 8.48535 23.25 9.15692 23.25 9.98535V17.4854C23.25 18.3138 22.5784 18.9854 21.75 18.9854H20.25V23.4854L15.75 18.9854H12" stroke="black" stroke-width="1.5" stroke-linecap="round" stroke-linejoin="round"/>
<path d="M12.75 6.48535V11.4854C12.75 11.8996 12.4142 12.2354 12 12.2354H7.5C7.08579 12.2354 6.75 11.8996 6.75 11.4854V6.48535" stroke="black" stroke-width="1.5" stroke-linecap="round" stroke-linejoin="round"/>
<path d="M5.25 7.73535L9.75 3.98535L14.25 7.73535" stroke="black" stroke-width="1.5" stroke-linecap="round" stroke-linejoin="round"/>
</svg>
