<svg width="24" height="25" viewBox="0 0 24 25" fill="none" xmlns="http://www.w3.org/2000/svg">
<path d="M15 3.98535V8.98535C15 9.39957 14.6642 9.73535 14.25 9.73535H9.75C9.33579 9.73535 9 9.39957 9 8.98535V3.98535" stroke="black" stroke-width="1.5" stroke-linecap="round" stroke-linejoin="round"/>
<path d="M7.5 5.23535L12 1.48535L16.5 5.23535" stroke="black" stroke-width="1.5" stroke-linecap="round" stroke-linejoin="round"/>
<path d="M21.75 17.4854V22.4854C21.75 22.8996 21.4142 23.2354 21 23.2354H16.5C16.0858 23.2354 15.75 22.8996 15.75 22.4854V17.4854" stroke="black" stroke-width="1.5" stroke-linecap="round" stroke-linejoin="round"/>
<path d="M14.25 18.7354L18.75 14.9854L23.25 18.7354" stroke="black" stroke-width="1.5" stroke-linecap="round" stroke-linejoin="round"/>
<path d="M8.25 17.4854V22.4854C8.25 22.8996 7.91421 23.2354 7.5 23.2354H3C2.58579 23.2354 2.25 22.8996 2.25 22.4854V17.4854" stroke="black" stroke-width="1.5" stroke-linecap="round" stroke-linejoin="round"/>
<path d="M0.75 18.7354L5.25 14.9854L9.75 18.7354" stroke="black" stroke-width="1.5" stroke-linecap="round" stroke-linejoin="round"/>
</svg>
