<svg width="20" height="19" viewBox="0 0 20 19" fill="none" xmlns="http://www.w3.org/2000/svg">
<path d="M9.4375 13.9092V16.5477C9.4375 17.169 9.94118 17.6727 10.5625 17.6727H15.0625C15.6838 17.6727 16.1875 17.169 16.1875 16.5477V13.9092" stroke="black" stroke-width="1.5" stroke-linecap="round" stroke-linejoin="round"/>
<path d="M18.4371 13.3471L13.5621 8.96183C13.1344 8.57718 12.4854 8.57718 12.0576 8.96183L7.18262 13.3471" stroke="black" stroke-width="1.5" stroke-linecap="round" stroke-linejoin="round"/>
<path d="M17.3125 12.3344V9.23535" stroke="black" stroke-width="1.5" stroke-linecap="round" stroke-linejoin="round"/>
<path fill-rule="evenodd" clip-rule="evenodd" d="M7.1875 9.23535C8.7408 9.23535 10 7.97615 10 6.42285C10 4.86955 8.7408 3.61035 7.1875 3.61035C5.6342 3.61035 4.375 4.86955 4.375 6.42285C4.375 7.97615 5.6342 9.23535 7.1875 9.23535Z" stroke="black" stroke-width="1.5" stroke-linecap="round" stroke-linejoin="round"/>
<path d="M7.1875 17.6729C6.99885 17.6729 6.82277 17.5782 6.71875 17.4209C5.368 15.3854 1.5625 8.9781 1.5625 6.42285C1.5625 3.31625 4.0809 0.797852 7.1875 0.797852C10.2941 0.797852 12.8125 3.31625 12.8125 6.42285" stroke="black" stroke-width="1.5" stroke-linecap="round" stroke-linejoin="round"/>
</svg>
