<svg width="24" height="25" viewBox="0 0 24 25" fill="none" xmlns="http://www.w3.org/2000/svg">
<path d="M0.75 17.4862C0.751544 15.2196 1.89011 13.1049 3.78149 11.8558C5.67287 10.6067 8.06476 10.3898 10.15 11.2782" stroke="black" stroke-width="1.5" stroke-linecap="round" stroke-linejoin="round"/>
<path fill-rule="evenodd" clip-rule="evenodd" d="M7.5 9.23633C9.77817 9.23633 11.625 7.3895 11.625 5.11133C11.625 2.83315 9.77817 0.986328 7.5 0.986328C5.22183 0.986328 3.375 2.83315 3.375 5.11133C3.375 7.3895 5.22183 9.23633 7.5 9.23633Z" stroke="black" stroke-width="1.5" stroke-linecap="round" stroke-linejoin="round"/>
<path fill-rule="evenodd" clip-rule="evenodd" d="M17.25 23.4844C20.5637 23.4844 23.25 20.7981 23.25 17.4844C23.25 14.1707 20.5637 11.4844 17.25 11.4844C13.9363 11.4844 11.25 14.1707 11.25 17.4844C11.25 20.7981 13.9363 23.4844 17.25 23.4844Z" stroke="black" stroke-width="1.5" stroke-linecap="round" stroke-linejoin="round"/>
<path d="M19.5 15.2334L15 19.7334" stroke="black" stroke-width="1.5" stroke-linecap="round" stroke-linejoin="round"/>
<path d="M15 15.2334L19.5 19.7334" stroke="black" stroke-width="1.5" stroke-linecap="round" stroke-linejoin="round"/>
</svg>
