<svg width="24" height="25" viewBox="0 0 24 25" fill="none" xmlns="http://www.w3.org/2000/svg">
<path d="M0.75 17.4852C0.751544 15.2186 1.89011 13.1039 3.78149 11.8548C5.67287 10.6057 8.06476 10.3888 10.15 11.2772" stroke="black" stroke-width="1.5" stroke-linecap="round" stroke-linejoin="round"/>
<path fill-rule="evenodd" clip-rule="evenodd" d="M7.5 9.23535C9.77817 9.23535 11.625 7.38853 11.625 5.11035C11.625 2.83218 9.77817 0.985352 7.5 0.985352C5.22183 0.985352 3.375 2.83218 3.375 5.11035C3.375 7.38853 5.22183 9.23535 7.5 9.23535Z" stroke="black" stroke-width="1.5" stroke-linecap="round" stroke-linejoin="round"/>
<path d="M15 18.9854H11.25V22.7354" stroke="black" stroke-width="1.5" stroke-linecap="round" stroke-linejoin="round"/>
<path d="M22.6668 19.7184C21.8501 22.1049 19.532 23.6452 17.0155 23.4734C14.4989 23.3017 12.4116 21.4607 11.9268 18.9854" stroke="black" stroke-width="1.5" stroke-linecap="round" stroke-linejoin="round"/>
<path d="M19.5 15.9854H23.25V12.2354" stroke="black" stroke-width="1.5" stroke-linecap="round" stroke-linejoin="round"/>
<path d="M11.832 15.2523C12.6487 12.8657 14.9668 11.3254 17.4833 11.4972C19.9999 11.6689 22.0872 13.5099 22.572 15.9853" stroke="black" stroke-width="1.5" stroke-linecap="round" stroke-linejoin="round"/>
</svg>
