<svg width="20" height="19" viewBox="0 0 20 19" fill="none" xmlns="http://www.w3.org/2000/svg">
<path fill-rule="evenodd" clip-rule="evenodd" d="M10 11.4854C12.1746 11.4854 13.9375 9.72247 13.9375 7.54785C13.9375 5.37323 12.1746 3.61035 10 3.61035C7.82538 3.61035 6.0625 5.37323 6.0625 7.54785C6.0625 9.72247 7.82538 11.4854 10 11.4854Z" stroke="black" stroke-width="1.5" stroke-linecap="round" stroke-linejoin="round"/>
<path d="M15.1849 15.8925C13.8128 14.5118 11.9467 13.7354 10.0002 13.7354C8.05365 13.7354 6.18752 14.5118 4.81543 15.8925" stroke="black" stroke-width="1.5" stroke-linecap="round" stroke-linejoin="round"/>
<path fill-rule="evenodd" clip-rule="evenodd" d="M10 17.6729C14.6599 17.6729 18.4375 13.8953 18.4375 9.23535C18.4375 4.57545 14.6599 0.797852 10 0.797852C5.3401 0.797852 1.5625 4.57545 1.5625 9.23535C1.5625 13.8953 5.3401 17.6729 10 17.6729Z" stroke="black" stroke-width="1.5" stroke-linecap="round" stroke-linejoin="round"/>
</svg>
