<svg width="24" height="25" viewBox="0 0 24 25" fill="none" xmlns="http://www.w3.org/2000/svg">
<path fill-rule="evenodd" clip-rule="evenodd" d="M10.5 20.4854C15.8848 20.4854 20.25 16.1201 20.25 10.7354C20.25 5.35058 15.8848 0.985352 10.5 0.985352C5.11522 0.985352 0.75 5.35058 0.75 10.7354C0.75 16.1201 5.11522 20.4854 10.5 20.4854Z" stroke="black" stroke-width="1.5" stroke-linecap="round" stroke-linejoin="round"/>
<path d="M17.3936 17.6294L23.2496 23.4854" stroke="black" stroke-width="1.5" stroke-linecap="round" stroke-linejoin="round"/>
<path fill-rule="evenodd" clip-rule="evenodd" d="M10.5 12.2305C12.364 12.2305 13.875 10.7194 13.875 8.85547C13.875 6.99151 12.364 5.48047 10.5 5.48047C8.63604 5.48047 7.125 6.99151 7.125 8.85547C7.125 10.7194 8.63604 12.2305 10.5 12.2305Z" stroke="black" stroke-width="1.5" stroke-linecap="round" stroke-linejoin="round"/>
<path d="M15 15.7292C13.8501 14.4567 12.2151 13.7305 10.5 13.7305C8.78486 13.7305 7.1499 14.4567 6 15.7292" stroke="black" stroke-width="1.5" stroke-linecap="round" stroke-linejoin="round"/>
</svg>
