<svg width="24" height="25" viewBox="0 0 24 25" fill="none" xmlns="http://www.w3.org/2000/svg">
<path fill-rule="evenodd" clip-rule="evenodd" d="M11.25 16.7354C13.114 16.7354 14.625 15.2243 14.625 13.3604C14.625 11.4964 13.114 9.98535 11.25 9.98535C9.38604 9.98535 7.875 11.4964 7.875 13.3604C7.875 15.2243 9.38604 16.7354 11.25 16.7354Z" stroke="black" stroke-width="1.5" stroke-linecap="round" stroke-linejoin="round"/>
<path d="M12.414 18.3474C12.0305 18.273 11.6407 18.2355 11.25 18.2354C8.2162 18.2325 5.64986 20.478 5.25 23.4854" stroke="black" stroke-width="1.5" stroke-linecap="round" stroke-linejoin="round"/>
<path d="M14.25 20.4854H17.25" stroke="black" stroke-width="1.5" stroke-linecap="round" stroke-linejoin="round"/>
<path d="M9.75 3.98535H5.25C4.42157 3.98535 3.75 4.65692 3.75 5.48535V21.9854C3.75 22.8138 4.42157 23.4854 5.25 23.4854H18.75C19.5784 23.4854 20.25 22.8138 20.25 21.9854V5.48535C20.25 4.65692 19.5784 3.98535 18.75 3.98535H14.25" stroke="black" stroke-width="1.5" stroke-linecap="round" stroke-linejoin="round"/>
<path fill-rule="evenodd" clip-rule="evenodd" d="M14.25 3.23535C14.25 1.99271 13.2426 0.985352 12 0.985352C10.7574 0.985352 9.75 1.99271 9.75 3.23535V6.23535C9.75 6.64957 10.0858 6.98535 10.5 6.98535H13.5C13.9142 6.98535 14.25 6.64957 14.25 6.23535V3.23535Z" stroke="black" stroke-width="1.5" stroke-linecap="round" stroke-linejoin="round"/>
</svg>
