<svg width="24" height="25" viewBox="0 0 24 25" fill="none" xmlns="http://www.w3.org/2000/svg">
<path d="M0.75 17.4852C0.751544 15.2186 1.89011 13.1039 3.78149 11.8548C5.67287 10.6057 8.06476 10.3888 10.15 11.2772" stroke="black" stroke-width="1.5" stroke-linecap="round" stroke-linejoin="round"/>
<path fill-rule="evenodd" clip-rule="evenodd" d="M7.5 9.23535C9.77817 9.23535 11.625 7.38853 11.625 5.11035C11.625 2.83218 9.77817 0.985352 7.5 0.985352C5.22183 0.985352 3.375 2.83218 3.375 5.11035C3.375 7.38853 5.22183 9.23535 7.5 9.23535Z" stroke="black" stroke-width="1.5" stroke-linecap="round" stroke-linejoin="round"/>
<path d="M19.5 15.9854H23.25V11.4854" stroke="black" stroke-width="1.5" stroke-linecap="round" stroke-linejoin="round"/>
<path d="M23.0607 15.9854C22.366 13.2903 19.9091 11.4266 17.1264 11.4842C14.3437 11.5418 11.966 13.5055 11.3834 16.2271C10.8009 18.9488 12.1665 21.7137 14.6818 22.9053C17.1971 24.0968 20.2017 23.4022 21.9387 21.2274" stroke="black" stroke-width="1.5" stroke-linecap="round" stroke-linejoin="round"/>
</svg>
