<svg width="24" height="25" viewBox="0 0 24 25" fill="none" xmlns="http://www.w3.org/2000/svg">
<path d="M17.25 20.4854C17.0429 20.4854 16.875 20.6532 16.875 20.8604C16.875 21.0675 17.0429 21.2354 17.25 21.2354C17.4571 21.2354 17.625 21.0675 17.625 20.8604C17.6253 20.7608 17.5858 20.6653 17.5155 20.5949C17.4451 20.5245 17.3495 20.4851 17.25 20.4854" stroke="black" stroke-width="1.5" stroke-linecap="round" stroke-linejoin="round"/>
<path d="M17.25 18.2354V15.2354" stroke="black" stroke-width="1.5" stroke-linecap="round" stroke-linejoin="round"/>
<path fill-rule="evenodd" clip-rule="evenodd" d="M23.0616 20.9173C23.3369 21.4673 23.3077 22.1207 22.9843 22.6439C22.661 23.1671 22.0897 23.4855 21.4746 23.4853H13.0236C12.4086 23.4855 11.8373 23.1671 11.5139 22.6439C11.1906 22.1207 11.1613 21.4673 11.4366 20.9173L15.6626 12.4653C15.9632 11.8646 16.5774 11.4851 17.2491 11.4851C17.9209 11.4851 18.535 11.8646 18.8356 12.4653L23.0616 20.9173Z" stroke="black" stroke-width="1.5" stroke-linecap="round" stroke-linejoin="round"/>
<path fill-rule="evenodd" clip-rule="evenodd" d="M7.5 9.23535C9.77817 9.23535 11.625 7.38853 11.625 5.11035C11.625 2.83218 9.77817 0.985352 7.5 0.985352C5.22183 0.985352 3.375 2.83218 3.375 5.11035C3.375 7.38853 5.22183 9.23535 7.5 9.23535Z" stroke="black" stroke-width="1.5" stroke-linecap="round" stroke-linejoin="round"/>
<path d="M12.21 12.6603C10.2696 10.7607 7.3791 10.2105 4.87645 11.2641C2.37381 12.3178 0.747385 14.7699 0.750003 17.4853" stroke="black" stroke-width="1.5" stroke-linecap="round" stroke-linejoin="round"/>
</svg>
