<svg width="24" height="25" viewBox="0 0 24 25" fill="none" xmlns="http://www.w3.org/2000/svg">
<path d="M0.75 17.4852C0.751544 15.2186 1.89011 13.1039 3.78149 11.8548C5.67287 10.6057 8.06476 10.3888 10.15 11.2772" stroke="black" stroke-width="1.5" stroke-linecap="round" stroke-linejoin="round"/>
<path fill-rule="evenodd" clip-rule="evenodd" d="M7.5 9.23535C9.77817 9.23535 11.625 7.38853 11.625 5.11035C11.625 2.83218 9.77817 0.985352 7.5 0.985352C5.22183 0.985352 3.375 2.83218 3.375 5.11035C3.375 7.38853 5.22183 9.23535 7.5 9.23535Z" stroke="black" stroke-width="1.5" stroke-linecap="round" stroke-linejoin="round"/>
<path fill-rule="evenodd" clip-rule="evenodd" d="M17.25 23.4854C20.5637 23.4854 23.25 20.7991 23.25 17.4854C23.25 14.1716 20.5637 11.4854 17.25 11.4854C13.9363 11.4854 11.25 14.1716 11.25 17.4854C11.25 20.7991 13.9363 23.4854 17.25 23.4854Z" stroke="black" stroke-width="1.5" stroke-linecap="round" stroke-linejoin="round"/>
<path d="M19.901 17.4853H17.25V14.8333" stroke="black" stroke-width="1.5" stroke-linecap="round" stroke-linejoin="round"/>
</svg>
