<svg width="24" height="25" viewBox="0 0 24 25" fill="none" xmlns="http://www.w3.org/2000/svg">
<path fill-rule="evenodd" clip-rule="evenodd" d="M7.5 9.23535C9.77817 9.23535 11.625 7.38853 11.625 5.11035C11.625 2.83218 9.77817 0.985352 7.5 0.985352C5.22183 0.985352 3.375 2.83218 3.375 5.11035C3.375 7.38853 5.22183 9.23535 7.5 9.23535Z" stroke="black" stroke-width="1.5" stroke-linecap="round" stroke-linejoin="round"/>
<path d="M12.21 12.6603C10.2696 10.7607 7.3791 10.2105 4.87645 11.2641C2.37381 12.3178 0.747385 14.7699 0.750003 17.4853" stroke="black" stroke-width="1.5" stroke-linecap="round" stroke-linejoin="round"/>
<path fill-rule="evenodd" clip-rule="evenodd" d="M20.2504 9.98535L14.3394 16.8674C14.2446 16.9788 14.2233 17.1351 14.2847 17.2678C14.3461 17.4006 14.4791 17.4855 14.6254 17.4854H17.2504V23.4854L23.1604 16.6034C23.2551 16.4921 23.2765 16.336 23.2153 16.2033C23.1541 16.0706 23.0215 15.9856 22.8754 15.9854H20.2504V9.98535Z" stroke="black" stroke-width="1.5" stroke-linecap="round" stroke-linejoin="round"/>
</svg>
